<svg width="444" height="65" viewBox="0 0 444 65" fill="none" xmlns="http://www.w3.org/2000/svg">
	<path
		d="M68.791 44.759H64.166C64.0129 44.7874 63.8553 44.7782 63.7066 44.7321C63.558 44.6859 63.4228 44.6043 63.3127 44.4942C63.2027 44.3842 63.1211 44.249 63.0749 44.1003C63.0288 43.9517 63.0196 43.794 63.048 43.641V23.529C63.0196 23.376 63.0288 23.2183 63.0749 23.0697C63.1211 22.921 63.2027 22.7858 63.3127 22.6758C63.4228 22.5657 63.558 22.4841 63.7066 22.438C63.8553 22.3918 64.0129 22.3826 64.166 22.411H69.166C69.4556 22.3998 69.7419 22.4758 69.988 22.629C70.2431 22.8162 70.4507 23.0608 70.594 23.343L73.384 28.4C73.4581 28.542 73.5465 28.676 73.648 28.8C73.6853 28.8421 73.7317 28.8751 73.7837 28.8966C73.8357 28.918 73.8918 28.9274 73.948 28.924H74.227C74.2831 28.9271 74.3391 28.9175 74.391 28.8961C74.443 28.8746 74.4894 28.8418 74.527 28.8C74.6273 28.6756 74.715 28.5417 74.789 28.4L77.553 23.342C77.6947 23.0606 77.9002 22.8161 78.153 22.628C78.3997 22.4747 78.6867 22.3987 78.977 22.41H84C84.153 22.3812 84.3107 22.3902 84.4594 22.4363C84.6082 22.4823 84.7434 22.5639 84.8534 22.6741C84.9634 22.7843 85.0448 22.9197 85.0906 23.0685C85.1363 23.2173 85.145 23.3751 85.116 23.528V43.641C85.1448 43.7939 85.1359 43.9516 85.09 44.1003C85.0442 44.2489 84.9628 44.3842 84.8528 44.4943C84.7429 44.6045 84.6078 44.6861 84.4592 44.7323C84.3106 44.7784 84.1529 44.7876 84 44.759H79.219C79.0658 44.7881 78.9078 44.7794 78.7588 44.7335C78.6098 44.6876 78.4742 44.606 78.3639 44.4958C78.2536 44.3856 78.1719 44.2501 78.1259 44.1012C78.0799 43.9522 78.071 43.7942 78.1 43.641V32.716L76.271 36.1C76.1333 36.4157 75.901 36.6807 75.6061 36.8586C75.3112 37.0365 74.9684 37.1184 74.625 37.093H73.384C73.0407 37.1183 72.698 37.0364 72.4033 36.8585C72.1086 36.6806 71.8765 36.4156 71.739 36.1L69.908 32.717V43.641C69.9366 43.794 69.9275 43.9516 69.8815 44.1003C69.8355 44.249 69.754 44.3842 69.644 44.4943C69.534 44.6044 69.3989 44.686 69.2502 44.7322C69.1016 44.7783 68.944 44.7875 68.791 44.759ZM104.919 44.759H90.519C90.3658 44.7879 90.208 44.7789 90.0591 44.733C89.9102 44.687 89.7747 44.6054 89.6645 44.4953C89.5542 44.3851 89.4725 44.2498 89.4264 44.1009C89.3803 43.952 89.3713 43.7942 89.4 43.641V23.529C89.3711 23.376 89.38 23.2183 89.4259 23.0695C89.4718 22.9207 89.5533 22.7853 89.6634 22.6752C89.7734 22.565 89.9087 22.4834 90.0575 22.4374C90.2062 22.3913 90.3639 22.3823 90.517 22.411H104.917C105.07 22.382 105.228 22.3909 105.377 22.4368C105.526 22.4828 105.661 22.5644 105.771 22.6746C105.881 22.7848 105.963 22.9203 106.009 23.0692C106.054 23.2181 106.063 23.376 106.034 23.529V27.16C106.063 27.313 106.054 27.4709 106.009 27.6197C105.963 27.7686 105.881 27.9041 105.771 28.0142C105.661 28.1244 105.526 28.2059 105.377 28.2517C105.228 28.2975 105.07 28.3062 104.917 28.277H96.352V30.667H102.405C102.558 30.638 102.716 30.6468 102.865 30.6927C103.014 30.7387 103.149 30.8203 103.259 30.9306C103.369 31.0408 103.45 31.1763 103.496 31.3253C103.542 31.4742 103.55 31.632 103.521 31.785V35.106C103.55 35.2589 103.541 35.4166 103.496 35.5654C103.45 35.7142 103.368 35.8496 103.258 35.9597C103.148 36.0698 103.013 36.1514 102.864 36.1973C102.716 36.2432 102.558 36.252 102.405 36.223H96.352V38.892H104.919C105.072 38.863 105.23 38.8719 105.379 38.9178C105.528 38.9638 105.663 39.0454 105.773 39.1556C105.883 39.2658 105.965 39.4013 106.011 39.5502C106.056 39.6991 106.065 39.857 106.036 40.01V43.641C106.065 43.794 106.056 43.9518 106.01 44.1006C105.964 44.2493 105.883 44.3847 105.773 44.4948C105.663 44.605 105.527 44.6866 105.379 44.7327C105.23 44.7787 105.072 44.7877 104.919 44.759ZM120.251 44.759H115.223C115.07 44.7877 114.912 44.7787 114.763 44.7327C114.615 44.6866 114.479 44.605 114.369 44.4948C114.259 44.3847 114.178 44.2493 114.132 44.1006C114.086 43.9518 114.077 43.794 114.106 43.641V28.4H109.543C109.39 28.4291 109.232 28.4204 109.083 28.3746C108.934 28.3288 108.799 28.2473 108.689 28.1372C108.578 28.027 108.497 27.8917 108.451 27.7428C108.405 27.5939 108.396 27.4361 108.425 27.283V23.529C108.396 23.3759 108.405 23.2182 108.451 23.0694C108.497 22.9206 108.579 22.7853 108.689 22.6752C108.799 22.5651 108.935 22.4835 109.083 22.4375C109.232 22.3914 109.39 22.3823 109.543 22.411H125.931C126.084 22.382 126.242 22.3909 126.391 22.4368C126.54 22.4828 126.675 22.5644 126.785 22.6746C126.895 22.7848 126.977 22.9203 127.023 23.0692C127.068 23.2181 127.077 23.376 127.048 23.529V27.284C127.077 27.437 127.068 27.5949 127.023 27.7437C126.977 27.8926 126.895 28.0281 126.785 28.1382C126.675 28.2484 126.54 28.3299 126.391 28.3757C126.242 28.4215 126.084 28.4302 125.931 28.401H121.369V43.641C121.397 43.794 121.388 43.9517 121.342 44.1003C121.296 44.249 121.214 44.3842 121.104 44.4942C120.994 44.6043 120.859 44.6859 120.71 44.7321C120.562 44.7782 120.404 44.7874 120.251 44.759ZM135.801 44.759H131.177C131.024 44.7874 130.866 44.7781 130.718 44.732C130.569 44.6858 130.434 44.6042 130.324 44.4942C130.213 44.3842 130.132 44.249 130.085 44.1004C130.039 43.9518 130.03 43.7941 130.058 43.641V23.529C130.03 23.3759 130.039 23.2181 130.085 23.0694C130.131 22.9206 130.213 22.7854 130.323 22.6753C130.433 22.5652 130.569 22.4836 130.717 22.4376C130.866 22.3915 131.024 22.3824 131.177 22.411H136.177C136.467 22.4 136.753 22.4759 136.999 22.629C137.252 22.8172 137.457 23.0616 137.599 23.343L140.392 28.401C140.467 28.5429 140.556 28.6769 140.657 28.801C140.694 28.8424 140.739 28.875 140.79 28.8964C140.841 28.9179 140.896 28.9277 140.951 28.925H141.231C141.286 28.9276 141.341 28.9178 141.393 28.8964C141.444 28.8749 141.489 28.8423 141.526 28.801C141.627 28.6767 141.715 28.5427 141.789 28.401L144.552 23.343C144.694 23.0618 144.899 22.8174 145.152 22.629C145.398 22.4757 145.685 22.3997 145.975 22.411H151.003C151.156 22.382 151.314 22.3909 151.463 22.4368C151.612 22.4828 151.747 22.5644 151.857 22.6746C151.967 22.7848 152.049 22.9203 152.095 23.0692C152.14 23.2181 152.149 23.376 152.12 23.529V43.641C152.149 43.794 152.14 43.9518 152.094 44.1006C152.048 44.2493 151.967 44.3847 151.857 44.4948C151.747 44.605 151.611 44.6866 151.463 44.7327C151.314 44.7787 151.156 44.7877 151.003 44.759H146.223C146.07 44.7877 145.912 44.7787 145.763 44.7327C145.615 44.6866 145.479 44.605 145.369 44.4948C145.259 44.3847 145.178 44.2493 145.132 44.1006C145.086 43.9518 145.077 43.794 145.106 43.641V32.716L143.281 36.1C143.143 36.4156 142.911 36.6806 142.617 36.8585C142.322 37.0364 141.979 37.1183 141.636 37.093H140.394C140.051 37.1179 139.708 37.0358 139.414 36.8579C139.119 36.6801 138.887 36.4153 138.749 36.1L136.919 32.717V43.641C136.947 43.794 136.938 43.9517 136.892 44.1003C136.846 44.249 136.764 44.3842 136.654 44.4942C136.544 44.6043 136.409 44.6859 136.26 44.7321C136.112 44.7782 135.954 44.7874 135.801 44.759ZM175.343 38.892C175.355 39.7737 175.213 40.6507 174.925 41.484C174.632 42.2773 174.115 42.9679 173.435 43.471C172.549 44.0957 171.546 44.5339 170.486 44.759C167.335 45.379 164.093 45.379 160.942 44.759C159.877 44.536 158.868 44.0977 157.978 43.471C157.298 42.9682 156.78 42.2775 156.488 41.484C156.199 40.651 156.056 39.7738 156.068 38.892V28.308C156.056 27.4265 156.199 26.5497 156.488 25.717C156.783 24.9213 157.3 24.227 157.978 23.717C158.864 23.0812 159.874 22.6383 160.942 22.417C164.093 21.797 167.335 21.797 170.486 22.417C171.549 22.6406 172.553 23.0834 173.435 23.717C174.113 24.2273 174.63 24.9215 174.925 25.717C175.213 26.55 175.355 27.4267 175.343 28.308V38.892ZM163.114 37.775C163.111 37.9718 163.151 38.1669 163.231 38.3465C163.312 38.526 163.431 38.6857 163.58 38.814C164.953 39.374 166.49 39.374 167.863 38.814C168.012 38.6858 168.132 38.5262 168.212 38.3466C168.293 38.167 168.333 37.9718 168.329 37.775V29.426C168.33 29.2339 168.289 29.044 168.208 28.8696C168.128 28.6953 168.01 28.5407 167.863 28.417C166.49 27.8583 164.953 27.8583 163.58 28.417C163.433 28.5409 163.315 28.6954 163.235 28.8698C163.154 29.0441 163.113 29.234 163.114 29.426V37.775ZM185.059 44.759H180.4C180.247 44.7874 180.089 44.7782 179.941 44.7321C179.792 44.6859 179.657 44.6043 179.547 44.4942C179.437 44.3842 179.355 44.249 179.309 44.1003C179.263 43.9517 179.254 43.794 179.282 43.641V23.529C179.253 23.3759 179.262 23.2182 179.308 23.0694C179.354 22.9206 179.436 22.7853 179.546 22.6752C179.656 22.5651 179.792 22.4835 179.94 22.4375C180.089 22.3914 180.247 22.3823 180.4 22.411H183.628C183.973 22.402 184.317 22.4653 184.636 22.597C184.955 22.7512 185.236 22.9738 185.459 23.249L191.48 30.14V23.529C191.451 23.3759 191.46 23.2182 191.506 23.0694C191.552 22.9206 191.634 22.7853 191.744 22.6752C191.854 22.5651 191.99 22.4835 192.138 22.4375C192.287 22.3914 192.445 22.3823 192.598 22.411H197.254C197.407 22.3823 197.565 22.3913 197.714 22.4374C197.862 22.4834 197.998 22.565 198.108 22.6752C198.218 22.7853 198.299 22.9207 198.345 23.0695C198.391 23.2183 198.4 23.376 198.371 23.529V43.641C198.4 43.794 198.391 43.9516 198.345 44.1003C198.299 44.249 198.217 44.3842 198.107 44.4943C197.997 44.6044 197.862 44.686 197.713 44.7322C197.565 44.7783 197.407 44.7875 197.254 44.759H192.6C192.447 44.7874 192.289 44.7782 192.141 44.7321C191.992 44.6859 191.857 44.6043 191.747 44.4942C191.637 44.3842 191.555 44.249 191.509 44.1003C191.463 43.9517 191.454 43.794 191.482 43.641V39.823L186.176 33.4V43.641C186.205 43.794 186.196 43.9516 186.15 44.1003C186.104 44.249 186.022 44.3842 185.912 44.4943C185.802 44.6044 185.667 44.686 185.518 44.7322C185.37 44.7783 185.212 44.7875 185.059 44.759ZM230.302 44.759H222.728C220.141 44.759 218.222 44.2417 216.971 43.207C216.315 42.6057 215.804 41.8624 215.479 41.0338C215.153 40.2053 215.021 39.3133 215.093 38.426V28.774C215.022 27.884 215.155 26.9895 215.48 26.1581C215.805 25.3266 216.315 24.5799 216.971 23.974C218.223 22.93 220.142 22.4077 222.728 22.407H230.3C230.453 22.3783 230.611 22.3874 230.76 22.4335C230.908 22.4795 231.044 22.5611 231.154 22.6712C231.264 22.7813 231.346 22.9166 231.392 23.0654C231.438 23.2142 231.447 23.3719 231.418 23.525V27.28C231.448 27.4333 231.439 27.5915 231.393 27.7408C231.348 27.8901 231.266 28.0259 231.156 28.1364C231.046 28.2468 230.91 28.3286 230.761 28.3746C230.612 28.4206 230.453 28.4293 230.3 28.4H224.061C223.554 28.3606 223.05 28.4977 222.633 28.788C222.472 28.9343 222.347 29.1151 222.266 29.317C222.186 29.5188 222.152 29.7363 222.168 29.953V37.34C222.15 37.5523 222.182 37.7658 222.263 37.9629C222.344 38.16 222.471 38.3349 222.633 38.473C223.058 38.743 223.559 38.8682 224.061 38.83H230.3C230.453 38.8013 230.611 38.8104 230.76 38.8565C230.908 38.9025 231.044 38.9841 231.154 39.0942C231.264 39.2043 231.346 39.3396 231.392 39.4884C231.438 39.6372 231.447 39.7949 231.418 39.948V43.641C231.446 43.794 231.437 43.9517 231.391 44.1003C231.345 44.249 231.263 44.3842 231.153 44.4942C231.043 44.6043 230.908 44.6859 230.759 44.7321C230.611 44.7782 230.453 44.7874 230.3 44.759H230.302ZM210.489 43.793V23.407C210.489 23.1418 210.384 22.8874 210.196 22.6999C210.009 22.5124 209.754 22.407 209.489 22.407H204.313C204.048 22.407 203.793 22.5124 203.606 22.6999C203.418 22.8874 203.313 23.1418 203.313 23.407V43.793C203.313 44.0582 203.418 44.3126 203.606 44.5001C203.793 44.6877 204.048 44.793 204.313 44.793H209.489C209.754 44.793 210.009 44.6877 210.196 44.5001C210.384 44.3126 210.489 44.0582 210.489 43.793ZM33 6.92801C27.9081 6.92781 22.9304 8.43756 18.6966 11.2663C14.4627 14.0951 11.1627 18.1159 9.21399 22.8201C7.26526 27.5244 6.75528 32.7009 7.74854 37.695C8.7418 42.6891 11.1937 47.2765 14.7942 50.8771C18.3946 54.4777 22.9819 56.9298 27.976 57.9233C32.9701 58.9167 38.1466 58.4069 42.8509 56.4584C47.5553 54.5098 51.5762 51.21 54.4051 46.9763C57.234 42.7425 58.744 37.7649 58.744 32.673C58.744 25.8452 56.0317 19.297 51.2038 14.4689C46.3759 9.6408 39.8278 6.92827 33 6.92801Z"
		fill="#0056A4" />
	<path
		d="M52.372 22.8C52.1283 22.8018 51.8885 22.8611 51.672 22.973L49.4 20.81C49.5104 20.6178 49.5785 20.4043 49.5997 20.1837C49.621 19.9631 49.595 19.7405 49.5234 19.5307C49.4518 19.321 49.3362 19.1289 49.1845 18.9674C49.0328 18.8059 48.8483 18.6786 48.6434 18.594C48.4386 18.5094 48.218 18.4695 47.9965 18.477C47.775 18.4844 47.5577 18.5391 47.3589 18.6372C47.1602 18.7354 46.9847 18.8748 46.8442 19.0462C46.7037 19.2175 46.6013 19.4169 46.544 19.631L40.31 18.589C40.31 18.55 40.321 18.514 40.321 18.474C40.3223 18.1833 40.2422 17.8981 40.0898 17.6505C39.9374 17.403 39.7187 17.2031 39.4585 17.0734C39.1983 16.9438 38.9071 16.8895 38.6177 16.9168C38.3283 16.9442 38.0523 17.0519 37.821 17.228L33.3 14C33.3418 13.8625 33.364 13.7197 33.366 13.576C33.366 13.1612 33.2012 12.7634 32.9079 12.4701C32.6146 12.1768 32.2168 12.012 31.802 12.012C31.3872 12.012 30.9894 12.1768 30.6961 12.4701C30.4028 12.7634 30.238 13.1612 30.238 13.576C30.2392 13.9325 30.3635 14.2777 30.59 14.553L28.55 17.653C28.2881 17.559 28.0059 17.537 27.7327 17.5891C27.4594 17.6413 27.2051 17.7658 26.9963 17.9496C26.7875 18.1334 26.6318 18.3698 26.5454 18.6342C26.459 18.8986 26.445 19.1814 26.505 19.453L21.693 21.8C21.5024 21.569 21.2491 21.398 20.9636 21.3076C20.6781 21.2171 20.3726 21.2111 20.0837 21.2903C19.7949 21.3694 19.5351 21.5303 19.3355 21.7536C19.136 21.9769 19.0052 22.2531 18.959 22.549L14.787 22.893C14.7348 22.6001 14.6002 22.3282 14.3988 22.1092C14.1975 21.8902 13.9378 21.7332 13.6504 21.6566C13.3629 21.5801 13.0596 21.5872 12.776 21.677C12.4924 21.7669 12.2403 21.9359 12.0494 22.164C11.8585 22.3922 11.7367 22.6701 11.6983 22.9651C11.6598 23.2601 11.7064 23.5599 11.8325 23.8294C11.9585 24.0988 12.1589 24.3267 12.41 24.4863C12.6611 24.6458 12.9525 24.7303 13.25 24.73C13.313 24.7277 13.3758 24.7213 13.438 24.711L14.5 27.5C14.2439 27.6765 14.0461 27.9253 13.9319 28.2147C13.8178 28.5041 13.7924 28.8209 13.859 29.1247C13.9256 29.4286 14.0812 29.7057 14.3059 29.9208C14.5306 30.1359 14.8143 30.2791 15.1208 30.3323C15.4273 30.3855 15.7427 30.3463 16.0267 30.2195C16.3108 30.0928 16.5507 29.8843 16.7158 29.6207C16.8809 29.3571 16.9638 29.0502 16.9539 28.7393C16.9439 28.4284 16.8416 28.1275 16.66 27.875L19.8 24.193C19.9594 24.2723 20.1312 24.3237 20.308 24.345L21.008 27.577C20.7055 27.744 20.4672 28.0067 20.3303 28.3239C20.1935 28.6411 20.1659 28.9948 20.252 29.3293C20.3381 29.6639 20.533 29.9603 20.806 30.1721C21.0789 30.3838 21.4145 30.4988 21.76 30.499L23.116 34.177C22.9255 34.2711 22.7562 34.4031 22.6186 34.565C22.4809 34.7269 22.3778 34.9151 22.3155 35.1183C22.2532 35.3214 22.2331 35.5351 22.2563 35.7463C22.2796 35.9575 22.3457 36.1617 22.4507 36.3464C22.5557 36.5311 22.6973 36.6925 22.8668 36.8205C23.0364 36.9486 23.2303 37.0406 23.4367 37.091C23.6431 37.1415 23.8576 37.1492 24.0671 37.1138C24.2766 37.0784 24.4766 37.0005 24.655 36.885L29 40.836C28.8557 41.1921 28.8478 41.5889 28.9779 41.9505C29.1079 42.312 29.3667 42.6129 29.7047 42.7955C30.0428 42.9782 30.4363 43.0297 30.81 42.9403C31.1836 42.8509 31.5112 42.6269 31.73 42.311L38.8 46.575C38.7232 46.7612 38.6834 46.9606 38.683 47.162C38.6821 47.4509 38.7615 47.7344 38.9124 47.9809C39.0633 48.2273 39.2796 48.4269 39.5374 48.5575C39.7951 48.6881 40.0841 48.7445 40.372 48.7204C40.66 48.6963 40.9355 48.5926 41.168 48.421L44.582 50.537C44.4692 50.8979 44.4923 51.2876 44.6469 51.6327C44.8016 51.9777 45.0771 52.2543 45.4216 52.4102C45.7661 52.5662 46.1557 52.5908 46.517 52.4793C46.8783 52.3678 47.1864 52.1281 47.3832 51.8052C47.58 51.4823 47.6518 51.0986 47.5852 50.7263C47.5186 50.3541 47.3182 50.0191 47.0217 49.7845C46.7252 49.5498 46.3531 49.4317 45.9755 49.4524C45.5979 49.4732 45.241 49.6313 44.972 49.897L41.651 47.839C41.7552 47.6285 41.81 47.3969 41.811 47.162C41.8117 46.9012 41.747 46.6444 41.6227 46.4151C41.4984 46.1858 41.3185 45.9914 41.0996 45.8497C40.8806 45.7079 40.6296 45.6235 40.3695 45.6039C40.1094 45.5844 39.8486 45.6305 39.611 45.738L32.895 37.166C33.1136 36.9073 33.2415 36.584 33.2589 36.2457C33.2763 35.9074 33.1823 35.5727 32.9914 35.2929C32.8004 35.0131 32.523 34.8036 32.2016 34.6965C31.8802 34.5895 31.5326 34.5907 31.212 34.7L29.38 31.625C29.5934 31.4149 29.7417 31.1478 29.8072 30.8556C29.8727 30.5634 29.8526 30.2585 29.7493 29.9774C29.646 29.6963 29.4639 29.451 29.2247 29.2707C28.9856 29.0905 28.6996 28.9829 28.401 28.961L28.391 27.394L30.337 26.871C30.4583 27.2111 30.6941 27.4985 31.004 27.6839C31.3139 27.8693 31.6787 27.9412 32.0357 27.8874C32.3928 27.8335 32.7201 27.6571 32.9615 27.3885C33.2029 27.12 33.3434 26.7758 33.359 26.415L39.8 26.215C39.8589 26.5383 40.0185 26.8348 40.256 27.0619C40.4935 27.289 40.7968 27.4353 41.1224 27.4796C41.448 27.524 41.7793 27.4643 42.069 27.309C42.3586 27.1537 42.5917 26.9108 42.735 26.615L46.74 27.459C46.7502 27.6834 46.8088 27.9029 46.9117 28.1025C47.0145 28.3021 47.1593 28.4772 47.3361 28.6157C47.5129 28.7543 47.7175 28.853 47.9359 28.9052C48.1543 28.9573 48.3815 28.9617 48.6018 28.9181C48.8221 28.8744 49.0303 28.7837 49.2123 28.6521C49.3943 28.5205 49.5458 28.3512 49.6563 28.1557C49.7669 27.9602 49.8339 27.7431 49.8528 27.5193C49.8717 27.2955 49.8421 27.0703 49.766 26.859L51.553 25.691C51.7586 25.818 51.9908 25.8955 52.2314 25.9175C52.472 25.9395 52.7144 25.9054 52.9397 25.8179C53.1649 25.7303 53.3667 25.5917 53.5292 25.413C53.6918 25.2343 53.8107 25.0202 53.8766 24.7878C53.9424 24.5553 53.9535 24.3107 53.9088 24.0733C53.8641 23.8358 53.765 23.6119 53.6192 23.4193C53.4733 23.2266 53.2848 23.0704 53.0684 22.963C52.852 22.8555 52.6136 22.7997 52.372 22.8ZM26.718 30.523C26.7197 30.8497 26.8247 31.1676 27.018 31.431L24.65 34.255C24.4129 34.1037 24.1391 34.02 23.858 34.013L22.495 30.313C22.7729 30.1675 23.0002 29.9413 23.147 29.664L26.718 30.523ZM30.147 36.451C30.1882 36.6882 30.2839 36.9127 30.4265 37.1066C30.5692 37.3006 30.7548 37.4589 30.969 37.569L30.469 39.854H30.458C30.0909 39.8564 29.7365 39.9889 29.458 40.228L25.179 36.338C25.2233 36.2604 25.2608 36.1791 25.291 36.095L30.147 36.451ZM22.91 27.869L27.6 20.624L27.637 26.824L23.057 28.054C23.0129 27.9886 22.9637 27.9267 22.91 27.869ZM29.57 19.405L37.263 18.905C37.3042 19.0547 37.368 19.1974 37.452 19.328L32.673 25.038C32.4939 24.9154 32.2907 24.8327 32.0769 24.7955C31.8632 24.7582 31.6439 24.7673 31.434 24.822L29.066 20.289C29.3288 20.0596 29.5064 19.7481 29.57 19.405ZM33.176 25.605L38.006 19.834C38.2351 19.9637 38.4937 20.0326 38.757 20.034C38.798 20.034 38.835 20.026 38.875 20.023L40.452 24.635C40.1661 24.8333 39.9549 25.1216 39.852 25.454L33.209 25.665C33.2 25.648 33.187 25.629 33.176 25.609V25.605ZM42.836 25.505L47.209 21.349C47.3643 21.4492 47.5364 21.5207 47.717 21.56L47.84 25.878C47.6293 25.9417 47.4346 26.0493 47.2686 26.1937C47.1026 26.3382 46.9691 26.5162 46.877 26.716L42.9 25.882C42.8947 25.7558 42.8732 25.6308 42.836 25.51V25.505ZM48.589 25.833L48.467 21.533C48.6153 21.4926 48.7568 21.4306 48.887 21.349L51.097 23.457C50.9225 23.6993 50.8225 23.9872 50.8094 24.2855C50.7962 24.5837 50.8705 24.8793 51.023 25.136L49.357 26.23C49.1433 26.0292 48.8769 25.8933 48.589 25.838V25.833ZM46.528 20.384C46.5626 20.5312 46.6189 20.6724 46.695 20.803L42.455 24.832C42.3096 24.6823 42.1357 24.5633 41.9434 24.482C41.7512 24.4008 41.5447 24.3589 41.336 24.359C41.2757 24.3614 41.2156 24.3675 41.156 24.377L39.587 19.8C39.784 19.677 39.9508 19.5112 40.075 19.315L46.528 20.384ZM37.346 17.806C37.2919 17.9174 37.2513 18.0349 37.225 18.156L29.518 18.656C29.45 18.4373 29.3342 18.2364 29.179 18.068L31.186 15.015C31.4781 15.1408 31.8017 15.1741 32.1133 15.1105C32.4249 15.0468 32.7096 14.8893 32.929 14.659L37.346 17.806ZM14.146 24.444C14.4242 24.2489 14.6308 23.9678 14.734 23.644L19.028 23.29C19.0759 23.4362 19.1453 23.5743 19.234 23.7L16.092 27.377C15.8754 27.2655 15.6355 27.2069 15.392 27.206C15.3293 27.2088 15.2669 27.2151 15.205 27.225L14.146 24.444ZM21.063 24.251C21.3572 24.1377 21.6102 23.9379 21.7887 23.6781C21.9672 23.4182 22.0628 23.1103 22.063 22.795C22.0626 22.6848 22.0509 22.5749 22.028 22.467L26.841 20.121C26.8752 20.1647 26.912 20.2065 26.951 20.246L22.28 27.458C22.1172 27.3996 21.9459 27.3688 21.773 27.367C21.761 27.367 21.749 27.367 21.737 27.367L21.063 24.251ZM31.191 40.045L31.698 37.745C31.9043 37.7434 32.1082 37.7009 32.298 37.62L38.47 45.5L32 41.6C32.0095 41.5411 32.0155 41.4816 32.018 41.422C32.0182 41.139 31.9413 40.8613 31.7956 40.6187C31.6499 40.3761 31.4409 40.1778 31.191 40.045ZM30.57 35.09C30.4022 35.2637 30.2769 35.4738 30.204 35.704L25.355 35.347C25.3273 35.1559 25.2639 34.9717 25.168 34.804L27.6 31.912C27.8126 32.0189 28.047 32.0754 28.285 32.077C28.4373 32.0732 28.5882 32.0472 28.733 32L30.57 35.09ZM27.651 29.084C27.3267 29.2285 27.0614 29.4793 26.899 29.795L23.336 28.941C23.3335 28.8807 23.3275 28.8206 23.318 28.761L27.643 27.6L27.651 29.084ZM28.351 20.659C28.368 20.659 28.384 20.647 28.402 20.643L30.769 25.175C30.4941 25.4182 30.3142 25.7509 30.261 26.114L28.386 26.614L28.351 20.659Z"
		fill="white" />
	<path
		d="M105.773 22.706C105.97 22.9446 106.064 23.2511 106.036 23.559V27.191C106.065 27.344 106.056 27.5019 106.011 27.6507C105.965 27.7996 105.883 27.935 105.773 28.0452C105.663 28.1553 105.528 28.2369 105.379 28.2827C105.23 28.3285 105.072 28.3372 104.919 28.308H96.352V30.7H102.405C102.558 30.6715 102.716 30.6807 102.865 30.7269C103.013 30.773 103.149 30.8548 103.259 30.965C103.369 31.0752 103.45 31.2106 103.496 31.3594C103.542 31.5082 103.551 31.666 103.522 31.819V35.139C103.551 35.2921 103.542 35.4499 103.497 35.5988C103.451 35.7477 103.369 35.8832 103.259 35.9934C103.149 36.1036 103.014 36.1852 102.865 36.2312C102.716 36.2771 102.558 36.286 102.405 36.257H96.352V38.926H104.919C105.072 38.897 105.23 38.9059 105.379 38.9518C105.528 38.9978 105.663 39.0794 105.773 39.1896C105.883 39.2998 105.965 39.4353 106.011 39.5842C106.056 39.7331 106.065 39.891 106.036 40.044V43.675C106.065 43.828 106.056 43.9857 106.01 44.1345C105.964 44.2832 105.883 44.4186 105.773 44.5286C105.663 44.6387 105.527 44.7203 105.378 44.7662C105.23 44.8121 105.072 44.8209 104.919 44.792H90.519C90.3656 44.8212 90.2074 44.8125 90.0582 44.7665C89.909 44.7205 89.7733 44.6388 89.6629 44.5283C89.5526 44.4179 89.4709 44.2821 89.4251 44.1328C89.3793 43.9836 89.3706 43.8254 89.4 43.672V23.559C89.3713 23.4061 89.3804 23.2484 89.4263 23.0998C89.4723 22.9511 89.5539 22.8159 89.6639 22.7059C89.7739 22.5959 89.9091 22.5143 90.0578 22.4684C90.2064 22.4224 90.3641 22.4133 90.517 22.442H104.917C105.226 22.4134 105.534 22.5083 105.773 22.706ZM125.931 22.442H109.543C109.39 22.4131 109.232 22.422 109.083 22.4679C108.935 22.5138 108.799 22.5954 108.689 22.7054C108.579 22.8155 108.497 22.9507 108.451 23.0995C108.405 23.2482 108.396 23.406 108.425 23.559V27.314C108.396 27.4671 108.405 27.6248 108.451 27.7736C108.497 27.9224 108.579 28.0577 108.689 28.1678C108.799 28.2779 108.935 28.3595 109.083 28.4056C109.232 28.4516 109.39 28.4607 109.543 28.432H114.106V43.672C114.077 43.825 114.086 43.9827 114.132 44.1315C114.178 44.2803 114.259 44.4156 114.369 44.5257C114.479 44.6357 114.615 44.7173 114.764 44.7632C114.912 44.8091 115.07 44.8179 115.223 44.789H120.251C120.404 44.8179 120.562 44.809 120.711 44.7631C120.859 44.7172 120.995 44.6357 121.105 44.5256C121.215 44.4155 121.297 44.2803 121.343 44.1315C121.389 43.9828 121.398 43.825 121.369 43.672V28.432H125.931C126.084 28.4607 126.242 28.4516 126.391 28.4056C126.539 28.3595 126.675 28.2779 126.785 28.1678C126.895 28.0577 126.977 27.9224 127.023 27.7736C127.069 27.6248 127.078 27.4671 127.049 27.314V23.559C127.078 23.406 127.069 23.2482 127.023 23.0995C126.977 22.9507 126.895 22.8155 126.785 22.7054C126.675 22.5954 126.539 22.5138 126.391 22.4679C126.242 22.422 126.084 22.4131 125.931 22.442ZM151.01 22.442H145.982C145.692 22.4304 145.405 22.506 145.159 22.659C144.907 22.8477 144.701 23.092 144.559 23.373L141.796 28.432C141.722 28.5736 141.633 28.7075 141.533 28.832C141.496 28.8732 141.45 28.9056 141.399 28.927C141.348 28.9485 141.293 28.9584 141.238 28.956H140.959C140.903 28.9593 140.847 28.9498 140.795 28.9283C140.743 28.9069 140.696 28.8739 140.659 28.832C140.558 28.7077 140.469 28.5737 140.394 28.432L137.6 23.373C137.459 23.0914 137.253 22.8469 137 22.659C136.754 22.5061 136.468 22.4305 136.178 22.442H131.178C131.025 22.4131 130.867 22.422 130.718 22.4679C130.57 22.5138 130.434 22.5954 130.324 22.7054C130.214 22.8155 130.132 22.9507 130.086 23.0995C130.04 23.2482 130.031 23.406 130.06 23.559V43.672C130.031 43.825 130.04 43.9828 130.086 44.1315C130.132 44.2803 130.214 44.4155 130.324 44.5256C130.434 44.6357 130.57 44.7172 130.718 44.7631C130.867 44.809 131.025 44.8179 131.178 44.789H135.8C135.953 44.8179 136.111 44.809 136.26 44.7631C136.408 44.7172 136.544 44.6357 136.654 44.5256C136.764 44.4155 136.846 44.2803 136.892 44.1315C136.938 43.9828 136.947 43.825 136.918 43.672V32.747L138.748 36.13C138.886 36.4453 139.118 36.7101 139.413 36.8879C139.707 37.0658 140.05 37.1479 140.393 37.123H141.635C141.978 37.1483 142.321 37.0664 142.616 36.8885C142.91 36.7106 143.142 36.4456 143.28 36.13L145.112 32.747V43.672C145.083 43.825 145.092 43.9827 145.138 44.1315C145.184 44.2803 145.265 44.4156 145.375 44.5257C145.485 44.6357 145.621 44.7173 145.77 44.7632C145.918 44.8091 146.076 44.8179 146.229 44.789H151.009C151.162 44.8179 151.32 44.8091 151.468 44.7632C151.617 44.7173 151.753 44.6357 151.863 44.5257C151.973 44.4156 152.054 44.2803 152.1 44.1315C152.146 43.9827 152.155 43.825 152.126 43.672V23.559C152.155 23.406 152.146 23.2483 152.1 23.0995C152.054 22.9508 151.973 22.8154 151.863 22.7054C151.753 22.5953 151.617 22.5137 151.468 22.4678C151.32 22.4219 151.163 22.4131 151.01 22.442ZM174.925 25.748C175.214 26.5808 175.356 27.4576 175.344 28.339V38.923C175.356 39.8048 175.214 40.6819 174.925 41.515C174.633 42.3083 174.115 42.9988 173.435 43.501C172.55 44.126 171.546 44.5642 170.486 44.789C167.335 45.4104 164.093 45.4104 160.942 44.789C159.877 44.5662 158.868 44.1279 157.978 43.501C157.298 42.9988 156.78 42.3083 156.488 41.515C156.199 40.6819 156.057 39.8048 156.069 38.923V28.339C156.057 27.4576 156.199 26.5808 156.488 25.748C156.783 24.9522 157.3 24.2579 157.978 23.748C158.864 23.1125 159.874 22.6696 160.942 22.448C164.093 21.8267 167.335 21.8267 170.486 22.448C171.549 22.6716 172.553 23.1144 173.435 23.748C174.113 24.2579 174.63 24.9522 174.925 25.748ZM168.325 29.456C168.326 29.2642 168.285 29.0745 168.205 28.9003C168.124 28.7261 168.007 28.5717 167.86 28.448C166.487 27.888 164.949 27.888 163.576 28.448C163.429 28.5716 163.311 28.726 163.231 28.9002C163.15 29.0744 163.109 29.2641 163.11 29.456V37.805C163.107 38.0019 163.146 38.1972 163.227 38.377C163.308 38.5567 163.427 38.7165 163.576 38.845C164.949 39.405 166.487 39.405 167.86 38.845C168.009 38.7165 168.128 38.5566 168.209 38.3769C168.289 38.1971 168.329 38.0019 168.325 37.805V29.456ZM197.253 22.442H192.6C192.447 22.4134 192.289 22.4225 192.141 22.4685C191.992 22.5144 191.857 22.596 191.747 22.706C191.637 22.8159 191.555 22.9511 191.509 23.0997C191.463 23.2484 191.454 23.406 191.482 23.559V30.17L185.461 23.28C185.238 23.0049 184.958 22.7823 184.639 22.628C184.319 22.4964 183.976 22.4331 183.63 22.442H180.4C180.247 22.4131 180.089 22.4219 179.941 22.4678C179.792 22.5137 179.656 22.5953 179.546 22.7054C179.436 22.8154 179.355 22.9508 179.309 23.0995C179.263 23.2483 179.254 23.406 179.283 23.559V43.672C179.254 43.825 179.263 43.9827 179.309 44.1315C179.355 44.2803 179.436 44.4156 179.546 44.5257C179.656 44.6357 179.792 44.7173 179.941 44.7632C180.089 44.8091 180.247 44.8179 180.4 44.789H185.056C185.209 44.8179 185.367 44.8091 185.515 44.7632C185.664 44.7173 185.8 44.6357 185.91 44.5257C186.02 44.4156 186.101 44.2803 186.147 44.1315C186.193 43.9827 186.202 43.825 186.173 43.672V33.43L191.48 39.854V43.672C191.452 43.825 191.461 43.9826 191.507 44.1313C191.553 44.2799 191.635 44.4151 191.745 44.5251C191.855 44.635 191.99 44.7166 192.139 44.7626C192.287 44.8085 192.445 44.8176 192.598 44.789H197.254C197.407 44.8177 197.565 44.8086 197.713 44.7627C197.862 44.7167 197.997 44.6351 198.107 44.5251C198.217 44.4151 198.299 44.2799 198.345 44.1312C198.391 43.9826 198.4 43.8249 198.371 43.672V23.559C198.4 23.4061 198.391 23.2484 198.345 23.0998C198.299 22.9511 198.217 22.8159 198.107 22.7059C197.997 22.5959 197.862 22.5143 197.713 22.4684C197.565 22.4224 197.406 22.4133 197.253 22.442ZM222.632 28.82C223.049 28.5297 223.553 28.3926 224.06 28.432H230.3C230.453 28.4604 230.611 28.4512 230.759 28.405C230.908 28.3589 231.043 28.2773 231.153 28.1672C231.263 28.0572 231.345 27.922 231.391 27.7733C231.437 27.6247 231.446 27.467 231.418 27.314V23.559C231.446 23.406 231.437 23.2484 231.391 23.0997C231.345 22.9511 231.263 22.8159 231.153 22.706C231.043 22.596 230.908 22.5144 230.759 22.4685C230.611 22.4225 230.453 22.4134 230.3 22.442H222.725C220.139 22.442 218.22 22.9643 216.968 24.009C216.312 24.6148 215.802 25.3616 215.477 26.1931C215.152 27.0245 215.019 27.919 215.09 28.809V38.461C215.018 39.3483 215.15 40.2403 215.476 41.0688C215.801 41.8974 216.312 42.6407 216.968 43.242C218.22 44.2773 220.139 44.7943 222.725 44.793H230.3C230.453 44.8216 230.611 44.8125 230.759 44.7666C230.908 44.7206 231.043 44.6391 231.153 44.5291C231.263 44.4191 231.345 44.2839 231.391 44.1353C231.437 43.9866 231.446 43.829 231.418 43.676V39.978C231.446 39.825 231.437 39.6674 231.391 39.5187C231.345 39.3701 231.263 39.2349 231.153 39.125C231.043 39.015 230.908 38.9334 230.759 38.8875C230.611 38.8415 230.453 38.8324 230.3 38.861H224.061C223.559 38.8989 223.058 38.7736 222.633 38.504C222.471 38.366 222.344 38.1912 222.262 37.9941C222.181 37.797 222.149 37.5833 222.167 37.371V29.984C222.152 29.7671 222.186 29.5495 222.267 29.3479C222.348 29.1462 222.475 28.9656 222.636 28.82H222.632ZM209.493 44.789H204.317C204.052 44.789 203.797 44.6836 203.61 44.4961C203.422 44.3086 203.317 44.0542 203.317 43.789V23.407C203.317 23.1418 203.422 22.8874 203.61 22.6999C203.797 22.5124 204.052 22.407 204.317 22.407H209.493C209.758 22.407 210.013 22.5124 210.2 22.6999C210.388 22.8874 210.493 23.1418 210.493 23.407V43.793C210.492 44.0575 210.386 44.3109 210.199 44.4975C210.011 44.6842 209.758 44.789 209.493 44.789Z"
		fill="url(#paint0_linear_2_3)" />
	<path
		d="M227.5 11.312V12.53C232.907 13.4501 237.77 16.3683 241.127 20.7059C244.483 25.0435 246.087 30.4839 245.621 35.9485C245.154 41.4132 242.652 46.5031 238.609 50.2093C234.566 53.9155 229.278 55.9673 223.794 55.958H52.525L52.358 56.098C48.6456 59.2154 44.2442 61.4039 39.518 62.4822C34.7918 63.5605 29.8767 63.4977 25.1796 62.2989C20.4824 61.1001 16.1384 58.7999 12.5069 55.5886C8.87547 52.3773 6.06107 48.3472 4.29668 43.8321C2.53228 39.3169 1.86863 34.4464 2.36065 29.6238C2.85267 24.8011 4.48622 20.165 7.12608 16.0992C9.76594 12.0333 13.3362 8.65469 17.5413 6.2429C21.7465 3.8311 26.4656 2.45552 31.308 2.23C31.7747 2.20934 32.2413 2.199 32.708 2.199C36.9277 2.19521 41.1023 3.06706 44.9678 4.75942C48.8333 6.45179 52.3055 8.92784 55.165 12.031L55.343 12.223H186.295V11.023H55.865C51.63 6.50587 46.1658 3.32667 40.1459 1.87731C34.126 0.427938 27.8136 0.771747 21.9867 2.86636C16.1599 4.96096 11.0733 8.71481 7.35395 13.6652C3.63462 18.6156 1.44511 24.5461 1.05534 30.7257C0.665562 36.9053 2.09255 43.0639 5.1604 48.4424C8.22825 53.8209 12.8029 58.1841 18.3204 60.9942C23.8379 63.8044 30.0571 64.9386 36.2113 64.2571C42.3656 63.5756 48.186 61.1082 52.955 57.159H223.83C229.629 57.1571 235.214 54.9716 239.474 51.0375C243.735 47.1034 246.357 41.7093 246.82 35.9289C247.283 30.1486 245.552 24.406 241.971 19.8443C238.391 15.2826 233.225 12.2364 227.5 11.312Z"
		fill="#0056A4" />
	<path
		d="M223.875 10.324L219.42 7.751C219.207 7.62797 218.965 7.56328 218.719 7.56343C218.473 7.56359 218.231 7.62859 218.018 7.75189C217.805 7.87518 217.629 8.05242 217.506 8.26575C217.384 8.47907 217.319 8.72094 217.32 8.967V10.932H210.379C210.332 10.0807 209.974 9.27656 209.371 8.67327C208.769 8.06998 207.965 7.70993 207.114 7.662C206.705 7.6881 206.301 7.76056 205.908 7.878C205.257 8.1057 204.683 8.51388 204.255 9.05496C203.827 9.59603 203.561 10.2477 203.489 10.934H196.864C196.709 10.0514 196.247 9.25194 195.56 8.67614C194.874 8.10034 194.006 7.78514 193.11 7.786C192.605 7.77682 192.102 7.8683 191.633 8.05511C191.163 8.24193 190.735 8.52034 190.374 8.87413C190.013 9.22793 189.726 9.65003 189.53 10.1158C189.333 10.5817 189.232 11.0819 189.231 11.5874C189.23 12.0929 189.329 12.5935 189.524 13.0601C189.718 13.5268 190.003 13.9501 190.363 14.3054C190.722 14.6607 191.149 14.9409 191.618 15.1297C192.087 15.3185 192.589 15.4121 193.094 15.405C193.984 15.4115 194.848 15.1071 195.537 14.5444C196.226 13.9817 196.697 13.196 196.869 12.323H203.482C203.482 13.8777 203.482 15.4323 203.482 16.987C203.475 17.2778 203.57 17.562 203.75 17.7905C203.93 18.019 204.184 18.1776 204.468 18.239C205.152 18.3517 205.844 18.4112 206.537 18.417C207.437 18.424 208.337 18.381 209.237 18.307C209.395 18.3096 209.551 18.2792 209.696 18.2178C209.841 18.1564 209.972 18.0654 210.08 17.9505C210.188 17.8356 210.27 17.6995 210.323 17.5508C210.375 17.4021 210.395 17.2441 210.383 17.087C210.319 16.056 210.367 15.017 210.367 13.982C210.367 13.429 210.355 12.876 210.351 12.323H217.32V14.113C217.32 14.3589 217.384 14.6005 217.507 14.8135C217.63 15.0266 217.806 15.2035 218.019 15.3266C218.232 15.4497 218.474 15.5145 218.72 15.5146C218.965 15.5146 219.207 15.4499 219.42 15.327L223.876 12.755C224.09 12.6324 224.267 12.4555 224.391 12.2423C224.515 12.029 224.58 11.787 224.58 11.5405C224.58 11.294 224.515 11.052 224.391 10.8387C224.267 10.6255 224.09 10.4486 223.876 10.326L223.875 10.324Z"
		fill="#0056A4" />
	<path
		d="M281.24 22.3499V44.7773H275.705V32.4025L271.949 44.7773H267.318L263.535 32.3071V44.7773H258V22.3499H264.692L269.69 36.9198L274.575 22.3499H281.24Z"
		fill="#0056A4" />
	<path
		d="M293.934 45C292.071 45 290.358 44.5122 288.795 43.5367C287.233 42.5399 285.99 41.172 285.068 39.4329C284.164 37.6727 283.712 35.6897 283.712 33.4841C283.712 31.2785 284.164 29.3061 285.068 27.5671C285.99 25.8068 287.233 24.4389 288.795 23.4633C290.358 22.4878 292.071 22 293.934 22C295.817 22 297.53 22.4878 299.074 23.4633C300.636 24.4389 301.869 25.8068 302.773 27.5671C303.676 29.3061 304.128 31.2785 304.128 33.4841C304.128 35.6897 303.676 37.6727 302.773 39.4329C301.869 41.172 300.636 42.5399 299.074 43.5367C297.511 44.5122 295.798 45 293.934 45ZM293.934 39.2102C295.346 39.2102 296.457 38.6906 297.266 37.6515C298.095 36.6123 298.509 35.2231 298.509 33.4841C298.509 31.7026 298.095 30.3029 297.266 29.2849C296.457 28.2457 295.346 27.7261 293.934 27.7261C292.504 27.7261 291.383 28.2457 290.574 29.2849C289.765 30.3029 289.36 31.7026 289.36 33.4841C289.36 35.2444 289.765 36.6441 290.574 37.6833C291.383 38.7012 292.504 39.2102 293.934 39.2102Z"
		fill="#0056A4" />
	<path
		d="M325.055 44.7773H319.521L312.151 32.2434V44.7773H306.616V22.3499H312.151L319.521 35.0429V22.3499H325.055V44.7773Z"
		fill="#0056A4" />
	<path d="M333.742 22.3499V44.7773H328.208V22.3499H333.742Z" fill="#0056A4" />
	<path d="M351.888 22.3499V27.3126H346.58V44.7773H341.045V27.3126H335.793V22.3499H351.888Z"
		fill="#0056A4" />
	<path
		d="M363.48 45C361.617 45 359.904 44.5122 358.341 43.5367C356.779 42.5399 355.536 41.172 354.614 39.4329C353.71 37.6727 353.258 35.6897 353.258 33.4841C353.258 31.2785 353.71 29.3061 354.614 27.5671C355.536 25.8068 356.779 24.4389 358.341 23.4633C359.904 22.4878 361.617 22 363.48 22C365.363 22 367.076 22.4878 368.62 23.4633C370.182 24.4389 371.415 25.8068 372.319 27.5671C373.222 29.3061 373.674 31.2785 373.674 33.4841C373.674 35.6897 373.222 37.6727 372.319 39.4329C371.415 41.172 370.182 42.5399 368.62 43.5367C367.057 44.5122 365.344 45 363.48 45ZM363.48 39.2102C364.892 39.2102 366.003 38.6906 366.812 37.6515C367.641 36.6123 368.055 35.2231 368.055 33.4841C368.055 31.7026 367.641 30.3029 366.812 29.2849C366.003 28.2457 364.892 27.7261 363.48 27.7261C362.05 27.7261 360.93 28.2457 360.12 29.2849C359.311 30.3029 358.906 31.7026 358.906 33.4841C358.906 35.2444 359.311 36.6441 360.12 37.6833C360.93 38.7012 362.05 39.2102 363.48 39.2102Z"
		fill="#0056A4" />
	<path
		d="M386.243 44.7773L382.29 36.5062H381.697V44.7773H376.162V22.3499H384.888C386.488 22.3499 387.843 22.668 388.954 23.3043C390.064 23.9193 390.902 24.7782 391.467 25.8811C392.032 26.9627 392.314 28.1821 392.314 29.5394C392.314 31.0664 391.937 32.4131 391.184 33.5795C390.45 34.7248 389.368 35.5413 387.937 36.029L392.427 44.7773H386.243ZM381.697 32.2434H384.436C385.189 32.2434 385.753 32.042 386.13 31.639C386.506 31.2361 386.695 30.6528 386.695 29.8893C386.695 29.1683 386.497 28.6063 386.102 28.2033C385.725 27.7792 385.17 27.5671 384.436 27.5671H381.697V32.2434Z"
		fill="#0056A4" />
	<path d="M400.365 22.3499V44.7773H394.831V22.3499H400.365Z" fill="#0056A4" />
	<path
		d="M421.956 44.7773H416.422L409.052 32.2434V44.7773H403.517V22.3499H409.052L416.422 35.0429V22.3499H421.956V44.7773Z"
		fill="#0056A4" />
	<path
		d="M437.816 29.7303C437.496 29.1365 437.054 28.6805 436.489 28.3624C435.943 28.0443 435.293 27.8852 434.54 27.8852C433.147 27.8852 432.046 28.3942 431.237 29.4122C430.446 30.4302 430.051 31.7981 430.051 33.5159C430.051 35.4458 430.474 36.9198 431.321 37.9378C432.187 38.9345 433.439 39.4329 435.077 39.4329C437.016 39.4329 438.4 38.4467 439.228 36.4744H433.665V31.9889H444V38.0332C443.567 39.2208 442.927 40.3343 442.08 41.3734C441.252 42.4126 440.197 43.2716 438.917 43.9502C437.637 44.6077 436.178 44.9364 434.54 44.9364C432.545 44.9364 430.775 44.4592 429.232 43.5048C427.707 42.5293 426.521 41.1826 425.674 39.4647C424.846 37.7257 424.431 35.7427 424.431 33.5159C424.431 31.3103 424.846 29.3485 425.674 27.6307C426.521 25.8917 427.707 24.545 429.232 23.5906C430.757 22.615 432.517 22.1272 434.512 22.1272C437.016 22.1272 439.087 22.8059 440.724 24.1632C442.362 25.5205 443.379 27.3762 443.774 29.7303H437.816Z"
		fill="#0056A4" />
	<defs>
		<linearGradient id="paint0_linear_2_3" x1="89.4" y1="33.616" x2="231.421" y2="33.616"
			gradientUnits="userSpaceOnUse">
			<stop offset="0.215" stop-color="#E30613" stop-opacity="0" />
			<stop offset="0.754" stop-color="#E30613" />
		</linearGradient>
	</defs>
</svg>
	